<?xml version="1.0" encoding="UTF-8"?>
<!DOCTYPE svg PUBLIC "-//W3C//DTD SVG 1.1//EN" "http://www.w3.org/Graphics/SVG/1.1/DTD/svg11.dtd">
<!-- Creator: CorelDRAW 2021 (64-Bit) -->
<svg xmlns="http://www.w3.org/2000/svg" xml:space="preserve" width="1500px" height="402px" version="1.1" style="shape-rendering:geometricPrecision; text-rendering:geometricPrecision; image-rendering:optimizeQuality; fill-rule:evenodd; clip-rule:evenodd"
viewBox="0 0 1508.89 404.76"
 xmlns:xlink="http://www.w3.org/1999/xlink"
 xmlns:xodm="http://www.corel.com/coreldraw/odm/2003">
 <defs>
  <style type="text/css">
   <![CDATA[
    .fil2 {fill:none}
    .fil0 {fill:#FEFEFE}
    .fil1 {fill:#FEFEFE;fill-opacity:0.501961}
   ]]>
  </style>
     <mask id="id0">
  <linearGradient id="id1" gradientUnits="userSpaceOnUse" x1="-37.5" y1="314.51" x2="401.76" y2="339.52">
   <stop offset="0" style="stop-opacity:1; stop-color:white"/>
   <stop offset="1" style="stop-opacity:0; stop-color:white"/>
  </linearGradient>
      <rect style="fill:url(#id1)" x="62.65" y="256.79" width="286.17" height="113.22"/>
     </mask>
     <mask id="id2">
  <linearGradient id="id3" gradientUnits="userSpaceOnUse" x1="162.99" y1="348.53" x2="700.16" y2="156.48">
   <stop offset="0" style="stop-opacity:1; stop-color:white"/>
   <stop offset="1" style="stop-opacity:0; stop-color:white"/>
  </linearGradient>
      <rect style="fill:url(#id3)" x="179.89" y="161.81" width="211.93" height="96.26"/>
     </mask>
 </defs>
 <g id="Слой_x0020_1">
  <metadata id="CorelCorpID_0Corel-Layer"/>
  <g id="_1334166096">
   <path class="fil0" d="M470.18 289.45c-4.26,0 -7.57,-1.3 -9.91,-3.93 -2.34,-2.63 -3.5,-6.35 -3.5,-11.15 0,-4.94 1.18,-8.75 3.56,-11.44 2.37,-2.68 5.75,-4.03 10.15,-4.03 1.41,0 2.82,0.15 4.24,0.46 1.42,0.3 2.53,0.66 3.34,1.08l-1.38 3.79c-0.98,-0.39 -2.06,-0.72 -3.22,-0.98 -1.17,-0.26 -2.2,-0.39 -3.09,-0.39 -5.99,0 -8.98,3.82 -8.98,11.45 0,3.62 0.73,6.4 2.19,8.34 1.46,1.93 3.62,2.9 6.49,2.9 2.45,0 4.98,-0.53 7.56,-1.59l0 3.97c-1.98,1.01 -4.45,1.52 -7.45,1.52zm39.87 -15.3c0,4.81 -1.21,8.56 -3.63,11.26 -2.42,2.7 -5.76,4.04 -10.03,4.04 -2.63,0 -4.97,-0.61 -7.02,-1.85 -2.04,-1.24 -3.61,-3.02 -4.72,-5.33 -1.12,-2.31 -1.67,-5.02 -1.67,-8.12 0,-4.81 1.2,-8.55 3.6,-11.23 2.4,-2.68 5.74,-4.02 10,-4.02 4.13,0 7.39,1.37 9.82,4.11 2.44,2.74 3.65,6.46 3.65,11.14zm-22.45 0c0,3.76 0.75,6.63 2.26,8.61 1.5,1.97 3.72,2.95 6.64,2.95 2.92,0 5.14,-0.98 6.66,-2.94 1.51,-1.97 2.26,-4.84 2.26,-8.62 0,-3.74 -0.75,-6.59 -2.26,-8.53 -1.52,-1.95 -3.76,-2.92 -6.71,-2.92 -2.93,0 -5.13,0.95 -6.62,2.87 -1.49,1.92 -2.23,4.78 -2.23,8.58zm50.45 14.76l0 -19.06c0,-2.41 -0.55,-4.2 -1.65,-5.38 -1.09,-1.19 -2.8,-1.77 -5.14,-1.77 -3.08,0 -5.34,0.83 -6.77,2.49 -1.44,1.67 -2.15,4.43 -2.15,8.26l0 15.46 -4.46 0 0 -29.46 3.62 0 0.73 4.02 0.22 0c0.91,-1.45 2.19,-2.58 3.84,-3.38 1.65,-0.8 3.49,-1.19 5.52,-1.19 3.55,0 6.22,0.85 8.01,2.57 1.8,1.7 2.69,4.45 2.69,8.21l0 19.23 -4.46 0zm32.63 -8.03c0,2.74 -1.03,4.86 -3.07,6.35 -2.04,1.48 -4.9,2.22 -8.6,2.22 -3.9,0 -6.95,-0.61 -9.14,-1.85l0 -4.14c1.42,0.71 2.93,1.28 4.56,1.69 1.62,0.42 3.18,0.62 4.69,0.62 2.33,0 4.12,-0.38 5.38,-1.12 1.25,-0.74 1.88,-1.87 1.88,-3.4 0,-1.14 -0.5,-2.13 -1.5,-2.94 -0.99,-0.82 -2.93,-1.78 -5.82,-2.89 -2.74,-1.03 -4.69,-1.92 -5.84,-2.68 -1.16,-0.77 -2.02,-1.63 -2.58,-2.6 -0.57,-0.96 -0.85,-2.12 -0.85,-3.47 0,-2.4 0.98,-4.29 2.93,-5.69 1.96,-1.38 4.64,-2.08 8.04,-2.08 3.17,0 6.27,0.64 9.3,1.93l-1.59 3.64c-2.96,-1.22 -5.64,-1.83 -8.03,-1.83 -2.12,0 -3.72,0.33 -4.79,0.99 -1.07,0.67 -1.62,1.58 -1.62,2.75 0,0.78 0.21,1.46 0.61,2.02 0.4,0.55 1.05,1.08 1.95,1.58 0.89,0.5 2.62,1.23 5.16,2.18 3.5,1.27 5.86,2.56 7.09,3.84 1.22,1.3 1.84,2.92 1.84,4.88zm11.45 -21.43l0 19.11c0,2.4 0.54,4.2 1.65,5.38 1.09,1.19 2.81,1.77 5.14,1.77 3.08,0 5.33,-0.84 6.76,-2.52 1.42,-1.69 2.14,-4.44 2.14,-8.26l0 -15.48 4.46 0 0 29.46 -3.68 0 -0.65 -3.94 -0.24 0c-0.91,1.45 -2.19,2.56 -3.81,3.33 -1.62,0.77 -3.47,1.15 -5.56,1.15 -3.58,0 -6.26,-0.85 -8.05,-2.54 -1.78,-1.71 -2.67,-4.44 -2.67,-8.18l0 -19.28 4.51 0zm34.07 29.46l-4.46 0 0 -41.85 4.46 0 0 41.85zm18.99 -3.14c0.79,0 1.55,-0.06 2.28,-0.18 0.73,-0.12 1.31,-0.24 1.74,-0.36l0 3.42c-0.48,0.23 -1.19,0.42 -2.13,0.58 -0.94,0.15 -1.79,0.22 -2.55,0.22 -5.7,0 -8.54,-2.99 -8.54,-9l0 -17.53 -4.22 0 0 -2.15 4.22 -1.86 1.88 -6.29 2.58 0 0 6.83 8.55 0 0 3.47 -8.55 0 0 17.33c0,1.78 0.42,3.14 1.27,4.1 0.84,0.94 2,1.42 3.47,1.42zm14.38 3.14l-4.46 0 0 -29.46 4.46 0 0 29.46zm-4.84 -37.46c0,-1.02 0.25,-1.77 0.75,-2.24 0.51,-0.48 1.13,-0.72 1.88,-0.72 0.72,0 1.34,0.24 1.86,0.73 0.52,0.48 0.78,1.23 0.78,2.23 0,1.01 -0.26,1.76 -0.78,2.24 -0.52,0.5 -1.14,0.75 -1.86,0.75 -0.75,0 -1.37,-0.25 -1.88,-0.75 -0.5,-0.48 -0.75,-1.23 -0.75,-2.24zm34.48 37.46l0 -19.06c0,-2.41 -0.55,-4.2 -1.65,-5.38 -1.09,-1.19 -2.8,-1.77 -5.14,-1.77 -3.08,0 -5.34,0.83 -6.77,2.49 -1.44,1.67 -2.15,4.43 -2.15,8.26l0 15.46 -4.46 0 0 -29.46 3.62 0 0.73 4.02 0.21 0c0.92,-1.45 2.2,-2.58 3.85,-3.38 1.65,-0.8 3.49,-1.19 5.52,-1.19 3.55,0 6.22,0.85 8.01,2.57 1.8,1.7 2.69,4.45 2.69,8.21l0 19.23 -4.46 0zm37.74 -29.46l0 2.83 -5.45 0.64c0.5,0.62 0.94,1.45 1.34,2.46 0.39,1.01 0.59,2.14 0.59,3.42 0,2.88 -0.99,5.19 -2.96,6.9 -1.97,1.72 -4.68,2.58 -8.12,2.58 -0.88,0 -1.7,-0.07 -2.48,-0.21 -1.9,1 -2.84,2.26 -2.84,3.79 0,0.81 0.33,1.4 0.99,1.79 0.67,0.38 1.81,0.58 3.42,0.58l5.21 0c3.2,0 5.65,0.67 7.36,2.01 1.71,1.34 2.57,3.3 2.57,5.86 0,3.26 -1.31,5.74 -3.92,7.45 -2.63,1.72 -6.45,2.57 -11.47,2.57 -3.85,0 -6.82,-0.71 -8.91,-2.15 -2.09,-1.43 -3.13,-3.46 -3.13,-6.06 0,-1.79 0.57,-3.34 1.72,-4.66 1.15,-1.3 2.76,-2.19 4.84,-2.65 -0.76,-0.35 -1.39,-0.87 -1.9,-1.58 -0.51,-0.73 -0.77,-1.56 -0.77,-2.51 0,-1.08 0.3,-2.02 0.87,-2.83 0.58,-0.8 1.48,-1.58 2.71,-2.34 -1.52,-0.63 -2.76,-1.69 -3.72,-3.2 -0.96,-1.5 -1.44,-3.23 -1.44,-5.17 0,-3.22 0.97,-5.7 2.91,-7.45 1.93,-1.75 4.68,-2.62 8.23,-2.62 1.54,0 2.93,0.18 4.17,0.55l10.18 0zm-23.5 34.4c0,1.59 0.67,2.8 2.02,3.63 1.34,0.81 3.26,1.23 5.78,1.23 3.74,0 6.52,-0.56 8.32,-1.68 1.8,-1.11 2.71,-2.64 2.71,-4.54 0,-1.6 -0.5,-2.7 -1.49,-3.32 -0.98,-0.61 -2.83,-0.92 -5.56,-0.92l-5.35 0c-2.03,0 -3.6,0.48 -4.73,1.45 -1.13,0.96 -1.7,2.34 -1.7,4.15zm2.42 -24.98c0,2.07 0.58,3.63 1.75,4.68 1.16,1.06 2.79,1.59 4.87,1.59 4.36,0 6.53,-2.12 6.53,-6.35 0,-4.43 -2.2,-6.64 -6.62,-6.64 -2.1,0 -3.71,0.57 -4.84,1.69 -1.13,1.13 -1.69,2.81 -1.69,5.03zm49.82 -11.44c0,1.24 0.32,2.41 0.96,3.53 0.65,1.12 1.75,2.47 3.31,4.05 2.32,-1.35 3.92,-2.59 4.83,-3.73 0.9,-1.13 1.36,-2.45 1.36,-3.93 0,-1.38 -0.47,-2.5 -1.39,-3.37 -0.92,-0.87 -2.16,-1.3 -3.7,-1.3 -1.59,0 -2.89,0.43 -3.88,1.29 -1,0.85 -1.49,2.01 -1.49,3.46zm4.16 28.01c4.32,0 7.9,-1.38 10.76,-4.14l-11.75 -11.4c-1.99,1.21 -3.4,2.22 -4.22,3.02 -0.83,0.8 -1.44,1.65 -1.83,2.57 -0.4,0.92 -0.59,1.95 -0.59,3.12 0,2.09 0.7,3.76 2.08,4.98 1.39,1.23 3.24,1.85 5.55,1.85zm-12.26 -6.72c0,-2.33 0.63,-4.39 1.88,-6.19 1.23,-1.78 3.47,-3.6 6.7,-5.43 -1.52,-1.7 -2.56,-2.99 -3.11,-3.87 -0.54,-0.87 -0.98,-1.79 -1.3,-2.74 -0.32,-0.95 -0.49,-1.93 -0.49,-2.96 0,-2.68 0.88,-4.78 2.64,-6.29 1.76,-1.5 4.21,-2.25 7.34,-2.25 2.91,0 5.19,0.75 6.85,2.25 1.67,1.49 2.51,3.57 2.51,6.24 0,1.92 -0.61,3.68 -1.83,5.31 -1.22,1.62 -3.24,3.27 -6.04,4.93l10.93 10.51c1,-1.11 1.81,-2.41 2.41,-3.91 0.6,-1.49 1.11,-3.13 1.52,-4.91l4.52 0c-1.22,5.13 -3.06,9.02 -5.52,11.67l8.04 7.83 -6.16 0 -4.97 -4.78c-2.11,1.89 -4.27,3.26 -6.45,4.09 -2.19,0.82 -4.63,1.23 -7.32,1.23 -3.85,0 -6.83,-0.95 -8.96,-2.85 -2.12,-1.9 -3.19,-4.52 -3.19,-7.88zm76.26 6.24l-0.24 0c-2.06,3 -5.15,4.49 -9.25,4.49 -3.85,0 -6.85,-1.32 -9,-3.95 -2.14,-2.63 -3.21,-6.39 -3.21,-11.24 0,-4.86 1.07,-8.64 3.23,-11.33 2.15,-2.68 5.15,-4.03 8.98,-4.03 3.99,0 7.06,1.45 9.2,4.36l0.35 0 -0.19 -2.13 -0.11 -2.06 0 -12.01 4.46 0 0 41.85 -3.62 0 -0.6 -3.95zm-8.93 0.75c3.05,0 5.26,-0.82 6.64,-2.48 1.37,-1.66 2.05,-4.34 2.05,-8.03l0 -0.94c0,-4.18 -0.69,-7.16 -2.08,-8.94 -1.39,-1.79 -3.61,-2.68 -6.66,-2.68 -2.62,0 -4.62,1.02 -6.01,3.06 -1.39,2.03 -2.09,4.9 -2.09,8.61 0,3.77 0.69,6.6 2.08,8.52 1.37,1.92 3.4,2.88 6.07,2.88zm35.06 3.74c-4.36,0 -7.79,-1.32 -10.31,-3.98 -2.52,-2.65 -3.78,-6.34 -3.78,-11.06 0,-4.75 1.17,-8.52 3.51,-11.32 2.34,-2.8 5.48,-4.19 9.42,-4.19 3.69,0 6.62,1.21 8.77,3.64 2.14,2.43 3.23,5.64 3.23,9.61l0 2.83 -20.3 0c0.09,3.46 0.96,6.08 2.61,7.88 1.67,1.79 4,2.69 7.01,2.69 3.17,0 6.31,-0.66 9.41,-1.99l0 3.98c-1.58,0.69 -3.07,1.17 -4.48,1.48 -1.4,0.29 -3.1,0.43 -5.09,0.43zm-1.21 -26.81c-2.37,0 -4.25,0.77 -5.66,2.31 -1.41,1.54 -2.24,3.67 -2.48,6.39l15.4 0c0,-2.81 -0.63,-4.96 -1.88,-6.46 -1.26,-1.49 -3.05,-2.24 -5.38,-2.24zm25.01 26.27l-11.19 -29.46 4.79 0 6.34 17.47c1.43,4.08 2.28,6.74 2.52,7.96l0.22 0c0.19,-0.96 0.82,-2.92 1.87,-5.9 1.05,-2.99 3.4,-9.5 7.05,-19.53l4.79 0 -11.18 29.46 -5.21 0zm33.57 0.54c-4.36,0 -7.79,-1.32 -10.3,-3.98 -2.53,-2.65 -3.78,-6.34 -3.78,-11.06 0,-4.75 1.16,-8.52 3.5,-11.32 2.34,-2.8 5.48,-4.19 9.43,-4.19 3.69,0 6.61,1.21 8.76,3.64 2.15,2.43 3.23,5.64 3.23,9.61l0 2.83 -20.3 0c0.09,3.46 0.97,6.08 2.62,7.88 1.66,1.79 3.99,2.69 7.01,2.69 3.17,0 6.3,-0.66 9.41,-1.99l0 3.98c-1.58,0.69 -3.08,1.17 -4.48,1.48 -1.41,0.29 -3.1,0.43 -5.1,0.43zm-1.21 -26.81c-2.36,0 -4.25,0.77 -5.65,2.31 -1.41,1.54 -2.24,3.67 -2.49,6.39l15.4 0c0,-2.81 -0.62,-4.96 -1.88,-6.46 -1.26,-1.49 -3.05,-2.24 -5.38,-2.24zm24.12 26.27l-4.46 0 0 -41.85 4.46 0 0 41.85zm34.9 -14.76c0,4.81 -1.21,8.56 -3.63,11.26 -2.42,2.7 -5.76,4.04 -10.03,4.04 -2.63,0 -4.97,-0.61 -7.02,-1.85 -2.04,-1.24 -3.61,-3.02 -4.72,-5.33 -1.12,-2.31 -1.67,-5.02 -1.67,-8.12 0,-4.81 1.2,-8.55 3.6,-11.23 2.4,-2.68 5.74,-4.02 10,-4.02 4.13,0 7.39,1.37 9.82,4.11 2.43,2.74 3.65,6.46 3.65,11.14zm-22.45 0c0,3.76 0.76,6.63 2.26,8.61 1.5,1.97 3.72,2.95 6.64,2.95 2.92,0 5.14,-0.98 6.66,-2.94 1.51,-1.96 2.26,-4.84 2.26,-8.62 0,-3.74 -0.75,-6.59 -2.26,-8.53 -1.52,-1.95 -3.76,-2.92 -6.71,-2.92 -2.93,0 -5.13,0.95 -6.62,2.87 -1.48,1.92 -2.23,4.78 -2.23,8.58zm43.99 15.3c-1.92,0 -3.67,-0.35 -5.26,-1.06 -1.58,-0.7 -2.92,-1.8 -3.99,-3.26l-0.32 0c0.21,1.71 0.32,3.35 0.32,4.89l0 12.1 -4.46 0 0 -42.67 3.62 0 0.63 4.02 0.21 0c1.14,-1.62 2.49,-2.78 4.01,-3.5 1.52,-0.71 3.27,-1.07 5.24,-1.07 3.91,0 6.93,1.34 9.05,4.01 2.13,2.67 3.19,6.41 3.19,11.24 0,4.85 -1.08,8.61 -3.24,11.29 -2.17,2.68 -5.16,4.01 -9,4.01zm-0.64 -26.75c-3.01,0 -5.2,0.83 -6.54,2.49 -1.35,1.67 -2.04,4.33 -2.07,7.97l0 0.99c0,4.14 0.68,7.1 2.07,8.88 1.38,1.79 3.6,2.68 6.65,2.68 2.54,0 4.54,-1.02 5.98,-3.09 1.44,-2.06 2.16,-4.9 2.16,-8.53 0,-3.67 -0.72,-6.49 -2.16,-8.45 -1.44,-1.96 -3.48,-2.94 -6.09,-2.94zm58.21 26.21l0 -19.17c0,-2.34 -0.49,-4.11 -1.5,-5.28 -1,-1.18 -2.56,-1.76 -4.67,-1.76 -2.78,0 -4.83,0.8 -6.16,2.39 -1.32,1.6 -1.99,4.05 -1.99,7.36l0 16.46 -4.46 0 0 -19.17c0,-2.34 -0.51,-4.11 -1.51,-5.28 -1,-1.17 -2.56,-1.76 -4.7,-1.76 -2.79,0 -4.84,0.83 -6.14,2.51 -1.3,1.67 -1.95,4.43 -1.95,8.24l0 15.46 -4.46 0 0 -29.46 3.63 0 0.72 4.02 0.22 0c0.84,-1.43 2.03,-2.55 3.56,-3.36 1.53,-0.81 3.25,-1.21 5.15,-1.21 4.6,0 7.62,1.67 9.03,5l0.21 0c0.88,-1.54 2.16,-2.76 3.82,-3.66 1.67,-0.89 3.57,-1.34 5.7,-1.34 3.33,0 5.83,0.85 7.49,2.57 1.65,1.7 2.48,4.45 2.48,8.21l0 19.23 -4.47 0zm26.12 0.54c-4.36,0 -7.79,-1.32 -10.31,-3.98 -2.52,-2.65 -3.78,-6.34 -3.78,-11.06 0,-4.75 1.17,-8.52 3.51,-11.32 2.34,-2.8 5.48,-4.19 9.43,-4.19 3.68,0 6.61,1.21 8.76,3.64 2.15,2.43 3.23,5.64 3.23,9.61l0 2.83 -20.3 0c0.09,3.46 0.96,6.08 2.62,7.88 1.66,1.79 3.99,2.69 7.01,2.69 3.16,0 6.3,-0.66 9.4,-1.99l0 3.98c-1.58,0.69 -3.07,1.17 -4.47,1.48 -1.41,0.29 -3.11,0.43 -5.1,0.43zm-1.21 -26.81c-2.37,0 -4.25,0.77 -5.65,2.31 -1.42,1.54 -2.24,3.67 -2.49,6.39l15.4 0c0,-2.81 -0.63,-4.96 -1.88,-6.46 -1.26,-1.49 -3.05,-2.24 -5.38,-2.24zm39.83 26.27l0 -19.06c0,-2.41 -0.55,-4.2 -1.65,-5.38 -1.09,-1.19 -2.8,-1.77 -5.13,-1.77 -3.09,0 -5.34,0.83 -6.78,2.49 -1.44,1.67 -2.15,4.43 -2.15,8.26l0 15.46 -4.46 0 0 -29.46 3.62 0 0.73 4.02 0.22 0c0.91,-1.45 2.19,-2.58 3.84,-3.38 1.65,-0.8 3.49,-1.19 5.52,-1.19 3.55,0 6.22,0.85 8.01,2.57 1.8,1.7 2.69,4.45 2.69,8.21l0 19.23 -4.46 0zm23.14 -3.14c0.79,0 1.55,-0.06 2.29,-0.18 0.73,-0.12 1.31,-0.24 1.74,-0.36l0 3.42c-0.48,0.23 -1.19,0.42 -2.14,0.58 -0.93,0.15 -1.79,0.22 -2.54,0.22 -5.7,0 -8.54,-2.99 -8.54,-9l0 -17.53 -4.23 0 0 -2.15 4.23 -1.86 1.88 -6.29 2.58 0 0 6.83 8.55 0 0 3.47 -8.55 0 0 17.33c0,1.78 0.42,3.14 1.26,4.1 0.85,0.94 2,1.42 3.47,1.42z"/>
   <path class="fil0" d="M539.98 146.8l-35.32 0.02 -5.07 7.84 31.03 0.01c-3.12,32.39 -59.45,36.05 -64.81,-2.14 -3.68,-26.15 17.02,-39.94 36.06,-38.23 12.02,1.07 21.27,7.17 26.58,18.08l8.73 0.01c-4.27,-17.13 -26.32,-30.2 -49.93,-24.81 -47.21,10.77 -37.72,85.85 15.61,80.29 21.25,-2.22 37.95,-18.09 37.12,-41.07zm658.06 0l-35.32 0.02 -5.07 7.84 31.03 0.01c-3.12,32.39 -59.45,36.05 -64.82,-2.14 -3.67,-26.15 17.03,-39.94 36.07,-38.23 12.02,1.07 21.27,7.17 26.58,18.08l8.73 0.01c-4.27,-17.13 -26.32,-30.2 -49.93,-24.81 -47.21,10.77 -37.72,85.85 15.61,80.29 21.25,-2.22 37.95,-18.09 37.12,-41.07zm252.41 39.46l8.09 0 0 -84.99 -8.09 0 0 84.99zm-241.16 0l8.11 0 0 -84.99 -8.11 0 0 84.99zm-388.68 -70.32l26.25 0.07 0.44 70.09 3.85 0.19 4.79 -0.03 0.03 -70.25 26.45 -0.06 0 -7.91 -56.89 -0.11 -4.92 7.6 0 0.41zm183.31 53.74c-3.52,4.92 -10,12.74 -24.39,10.62 -11.56,-1.7 -19.45,-10.45 -19.63,-23.02 -0.31,-22 21.96,-29.01 36.12,-21.19 6.02,3.32 7.84,6.85 9.74,11.07l7.77 0c-4.08,-28.3 -61.44,-31.56 -61.87,9.25 -0.19,17.49 11.08,28.43 26.14,31.16 15.75,2.85 30.48,-5.95 34.86,-17.89l-8.74 0zm-250.21 0.32l-7.71 -0.35c1.31,14.41 15.71,21.03 31.08,17.73 20.09,-4.3 19.67,-22.64 13.2,-28.55 -9.52,-8.69 -35.04,-2.52 -34.71,-15.69 0.29,-11.54 16.87,-12.08 24.06,-7.88 4.04,2.36 3.42,3.76 5.46,7.78l7.58 0.34c-1.66,-14.68 -15.76,-20.78 -31.56,-16.62 -13.17,3.47 -19.43,21.21 -7.87,29.18 9.59,6.61 36.33,1.24 32.53,16.29 -2.09,8.28 -24.85,15.72 -32.06,-2.23zm-61.76 16.26l8.14 0 0.02 -27.44 28.01 24.51 3.25 2.93 0.1 0 11.74 0 -22.95 -20.66 -11.11 -10.13 1.24 -1.08 0.05 0 1.79 -1.61 1.27 -1.12 -0.03 0 1.42 -1.28 23.68 -21.31 -0.05 0 -9.63 0 -2.16 0 -26.49 23.85 0 -0.09c-2.42,2.76 -6.45,7.35 -8.29,9.44l0 23.99zm8.28 -35.63l-0.14 -49.36 -8.14 0 0 49.46 8.28 -0.1zm583.67 12.44c-8.43,29.61 -53.9,19.59 -45.89,-13.14 2.81,-11.46 14.98,-19.83 29.95,-15.99 10.84,2.79 20.05,14.68 15.94,29.13zm-30.8 -36.51c-16.1,3.46 -27.49,17.74 -23.19,37.89 3.27,15.35 19.12,27.23 38.77,22.68 38.74,-8.96 28.28,-69.99 -15.58,-60.57zm128.46 36.51c-7.86,-32.69 39.18,-41.35 46.02,-12.75 7.93,33.16 -39.1,41.55 -46.02,12.75zm47.15 9.64l0.32 13.55 7.4 -0.14 -0.24 -31.79c-0.06,-8.58 -3.73,-15.86 -10.27,-21.46 -13.83,-11.84 -38.05,-7.92 -46.66,4.2 -17.57,24.7 2.95,57.32 31.92,49.95 9.49,-2.41 13.35,-7.13 17.53,-14.31zm-398.83 11.75l0 -25.5 0 -3.67c0.24,-7.9 2.23,-14.97 9.88,-19.54 8.32,-4.98 32.65,-6.56 32.65,21.62l0 28.89 7.95 -0.18c-0.01,-7.42 0.13,-15.01 0.16,-21.88 0.02,-5.34 0.08,-10.15 -0.74,-14.82 -1.1,-6.25 -3.3,-11.79 -7.49,-16.25 -7.84,-8.36 -24.2,-10.22 -34.76,-3.4 -4.32,2.79 -5.52,4.33 -7.65,7.27l0 -0.02 -0.03 0.03 -7.99 9.11 0 4.95 0 35.02 0.01 0 7.61 0 0.4 0 0 -1.63zm0 -47.95l0 -35.19 -0.19 0 -7.83 0 0 0.14 -0.02 0 0.01 35.14 8.03 -0.09zm-139.58 15.75c-0.11,-10.85 11.48,-19.56 23.62,-19.22 11.87,0.34 21.62,8.31 22.19,19.2l-45.81 0.02zm51.78 17.82l-8.48 -0.25c-2.76,4.02 -3.88,6.05 -9.23,8.48 -14.59,6.65 -34.19,-1.4 -34.52,-18.88l55.02 0c-0.37,-43.29 -54.27,-43.42 -62.58,-10.85 -10.06,39.48 45.59,54.26 59.79,21.5zm-316.21 -17.86c0.71,-11.32 10.89,-19.36 23.39,-19.19 11.44,0.16 22.44,8.14 22.39,19.23l-45.78 -0.04zm51.89 17.65c-13.29,-0.03 -6.82,0.83 -14.38,6.4 -3.98,2.94 -10.5,4.85 -17.01,4.22 -11.73,-1.13 -20.4,-9.11 -20.89,-21.06l55.16 -0.01c-0.29,-43.19 -54.15,-43.64 -62.67,-10.56 -10.46,40.67 48.44,52.79 59.79,21.01zm-122.16 -17.76c0.33,-9.9 11.43,-19.21 23.25,-19.08 11.38,0.13 21.84,8.69 22.58,19.24l-45.83 -0.16zm51.74 17.84l-8.44 -0.09c-11.76,18.08 -42.85,12.58 -43.64,-10.37l54.87 -0.09c0.7,-23.45 -15.98,-34.2 -31.76,-33.93 -19.7,0.32 -32.78,14.03 -31.74,34.31 1.76,34.18 53.73,36.41 60.71,10.17zm719.56 -35.98c33.12,-8.15 41.75,37.56 14.11,45.65 -32.45,9.5 -42.83,-38.58 -14.11,-45.65zm-16.43 4.93l0 -0.04 -0.02 0.02c-1.37,1.56 -5.6,6.39 -8.34,9.5l0.01 6.02c0.01,6.07 0.96,11.02 1.93,13.83 9.59,27.7 55.09,26.99 61.12,-5.33 6.23,-33.39 -35.39,-51.7 -54.7,-24zm-0.01 -0.52l-0.47 -36.95 -7.95 0.01 0.06 37.04 8.36 -0.1z"/>
   <g>
    <polygon class="fil0" points="264.6,161.81 62.45,119.16 150.57,47.76 352.71,90.54 "/>
    <polygon class="fil0" style="mask:url(#id0)" points="263.51,370.01 62.65,328.07 150.77,256.79 348.82,300.82 "/>
    <polygon class="fil1" points="62.45,119.15 62.65,328.07 150.77,256.79 150.57,47.76 "/>
    <polygon class="fil0" points="263.5,370.01 348.82,300.82 348.82,179.59 262.83,248.4 "/>
    <path class="fil0" style="mask:url(#id2)" d="M179.89 230.51l84.71 -68.7 0.08 0.02 127.14 26.83 -83.48 69.41c-35.61,-7.48 -88.47,-18.88 -128.45,-27.56z"/>
    <path class="fil0" d="M348.82 224.42l0 -44.83 -85.98 68.81c16.52,3.54 32.21,6.88 45.5,9.67l40.48 -33.65z"/>
   </g>
   <rect class="fil2" width="1508.89" height="404.76"/>
  </g>
 </g>
</svg>
